# xmcd CD database file
#
# Track frame offsets:
#	150
#	16260
#	29105
#	44280
#	61277
#	75502
#	91147
#	104185
#	118477
#	133760
#	149275
#	163075
#	178922
#	194035
#	208055
#	222245
#	238872
#	253295
#
# Disc length: 3572 seconds
#
# Revision: 1
# Processed by: cddbd v1.5.2PL0 Copyright (c) Steve Scherf et al.
# Submitted via: CDex 2.09
#
DISCID=200df212
DTITLE=Various Artist - Ta Rembetika CD 1
DYEAR=1997
DGENRE=Greek
TTITLE0=Oli i rembetes tou dounia
TTITLE1=Otan symvi sta perix
TTITLE2=Eimaste alania Eimaste alania
TTITLE3=Fertes mia koupa me krasi
TTITLE4=Tou botanikou o mangas
TTITLE5=Gineka tou bella
TTITLE6=Mangas vgike gia sergian
TTITLE7=Svise tou na kimithome
TTITLE8=Peftis se lathi
TTITLE9=Ela opos isse
TTITLE10=Baxe tafliki
TTITLE11=Mia stenachoria echo apopse
TTITLE12=Prin to charama
TTITLE13=O pasatempos
TTITLE14=Olos o kosmos tora
TTITLE15=Mes stin polli skotoura
TTITLE16=Sousa monachos choris agapi
TTITLE17=Anixe giati den antcho
EXTD=YEAR: 1997
EXTT0=
EXTT1=
EXTT2=
EXTT3=
EXTT4=
EXTT5=
EXTT6=
EXTT7=
EXTT8=
EXTT9=
EXTT10=
EXTT11=
EXTT12=
EXTT13=
EXTT14=
EXTT15=
EXTT16=
EXTT17=
PLAYORDER=
